<?xml version="1.0" encoding="UTF-8" standalone="no"?>
<svg
   xmlns:dc="http://purl.org/dc/elements/1.1/"
   xmlns:cc="http://creativecommons.org/ns#"
   xmlns:rdf="http://www.w3.org/1999/02/22-rdf-syntax-ns#"
   xmlns:svg="http://www.w3.org/2000/svg"
   xmlns="http://www.w3.org/2000/svg"
   version="1.1"
   id="Capa_1"
   x="0px"
   y="0px"
   viewBox="0 0 58 58"
   style="enable-background:new 0 0 58 58;"
   xml:space="preserve"><metadata
   id="metadata4626"><rdf:RDF><cc:Work
       rdf:about=""><dc:format>image/svg+xml</dc:format><dc:type
         rdf:resource="http://purl.org/dc/dcmitype/StillImage" /><dc:title></dc:title></cc:Work></rdf:RDF></metadata><defs
   id="defs4624" />
<path
   style="fill:#ffffff;fill-opacity:1;stroke:none;stroke-width:0;stroke-linecap:butt;stroke-linejoin:miter;stroke-miterlimit:4;stroke-dasharray:none;stroke-opacity:1"
   d="M 2.0572347,2.1158551 44.599726,0.91381126 56.383315,18.364286 56.043926,56.50861 H 2.0031369 Z"
   id="path4641" /><path
   d="M 57.049,12.187 55.688,10.826 46.184,1.321 C 46.183,1.32 46.183,1.32 46.182,1.32 L 45.412,0.549 C 45.057,0.195 44.586,0 44.085,0 H 3.0625 C 1.8755,0 0.5995,0.916 0.5995,2.926 V 34.6 55.537 56 c 0,0.837 0.841,1.652 1.836,1.909 0.051,0.014 0.1,0.033 0.152,0.043 C 2.7435,57.983 2.9025,58 3.0625,58 H 55.137 c 0.16,0 0.319,-0.017 0.475,-0.048 0.052,-0.01 0.101,-0.029 0.152,-0.043 C 56.759,57.652 57.6,56.837 57.6,56 V 55.537 34.6 13.978 c 0,-0.767 -0.093,-1.334 -0.551,-1.791 z M 45.6,3.565 54.035,12 H 45.6 Z M 3.0625,56 C 2.9915,56 2.9275,55.975 2.8645,55.951 2.7095,55.877 2.5982343,55.720996 2.5995,55.537 V 36.6 H 55.6 v 18.937 c 0,0.184 -0.11,0.34 -0.265,0.414 C 55.272,55.975 55.208,56 55.137,56 Z M 2.5995,36.6 V 2.926 C 2.5995,2.709 2.6325,2 3.0625,2 H 43.658 C 43.625,2.126 43.6,2.256 43.6,2.391 V 13.78 L 43.82,14 h 11.389 c 0.135,0 0.265,-0.025 0.391,-0.058 0,0.015 10e-4,0.021 10e-4,0.036 L 55.6,36.6 Z"
   id="path4573" />
















</svg>