<?xml version="1.0" encoding="UTF-8" standalone="no"?>
<svg
   xmlns:dc="http://purl.org/dc/elements/1.1/"
   xmlns:cc="http://creativecommons.org/ns#"
   xmlns:rdf="http://www.w3.org/1999/02/22-rdf-syntax-ns#"
   xmlns:svg="http://www.w3.org/2000/svg"
   xmlns="http://www.w3.org/2000/svg"
   width="64"
   height="64"
   viewBox="0 0 64 64"
   version="1.1"
   id="svg8">
  <defs
     id="defs2" />
  <metadata
     id="metadata5">
    <rdf:RDF>
      <cc:Work
         rdf:about="">
        <dc:format>image/svg+xml</dc:format>
        <dc:type
           rdf:resource="http://purl.org/dc/dcmitype/StillImage" />
        <dc:title></dc:title>
      </cc:Work>
    </rdf:RDF>
  </metadata>
  <g
     transform="matrix(1.5458206,0,0,1.5458206,-18.291993,-448.56644)"
     id="g5783">
    <rect
       style="fill:#2aff80;fill-opacity:1;stroke:none;stroke-width:2.66844296;stroke-linecap:round;stroke-miterlimit:4;stroke-dasharray:none;stroke-opacity:1"
       id="rect5754"
       width="3.6056867"
       height="3.4489174"
       x="42.771694"
       y="320.776" />
    <rect
       style="fill:#87cdde;fill-opacity:1;stroke:none;stroke-width:2.32414556;stroke-linecap:round;stroke-miterlimit:4;stroke-dasharray:none;stroke-opacity:1"
       id="rect5756"
       width="22.104425"
       height="14.422749"
       x="21.294348"
       y="300.08246" />
    <g
       transform="matrix(0.00323316,0,0,-0.00323316,16.368528,311.26891)"
       id="g861"
       style="fill:#000000">
      <path
         d="m 2577.1,5009.6 c -463.8,-69 -866.2,-419.7 -992.7,-862.4 C 1567.2,4089.7 1436.8,3430.4 1295,2681.1 503.4,-1456.7 365.4,-2185 365.4,-2208 c 0,-15.3 38.3,0 99.7,42.2 124.6,80.5 333.5,168.7 507.9,212.7 122.6,32.6 373.7,34.5 4011.2,34.5 3171.8,0 3903.9,-3.8 4005.5,-24.9 174.4,-36.4 396.7,-126.5 534.7,-214.6 67.1,-44.1 116.9,-65.2 116.9,-51.7 0,13.4 -21.1,136.1 -47.9,272.1 -726.3,3813.8 -1148,6000.6 -1171,6084.9 -109.3,381.4 -417.8,691.9 -822.2,827.9 l -134.2,44.1 -2395.6,1.9 c -1316.6,1.9 -2439.7,-3.9 -2493.3,-11.5 z M 5808.3,3349.9 c 149.5,-38.3 402.5,-151.4 530.9,-239.6 381.4,-260.6 640.1,-689.9 699.5,-1161.4 l 23,-176.3 86.2,-11.5 c 180.1,-23 283.6,-53.7 442.7,-128.4 323.9,-155.2 586.4,-494.5 663.1,-858.6 42.2,-195.5 26.8,-427.4 -40.2,-624.8 -128.4,-381.4 -394.8,-649.7 -785.8,-787.7 l -153.3,-53.6 -2251.9,-5.8 c -1339.6,-1.9 -2267.2,1.9 -2290.2,13.4 -21.1,9.6 -76.7,26.8 -124.6,40.3 -116.9,30.7 -318.1,138 -425.5,226.1 -274.1,228.1 -427.4,527 -450.4,885.4 -13.4,212.7 26.8,402.5 130.3,613.3 149.5,302.8 469.5,563.4 778.1,634.4 99.6,23 99.6,23 111.2,111.2 42.2,314.3 210.8,550 484.9,678.4 174.4,82.4 381.4,93.9 580.7,32.6 88.2,-26.8 143.7,-34.5 147.6,-21.1 19.2,57.5 174.4,272.1 268.3,371.8 174.4,182.1 454.2,360.3 682.3,435 247.2,80.6 640.1,92 893.1,26.9 z"
         id="path857"
         style="fill:#000000" />
      <path
         d="m 1097.5,-2359.4 c -498.3,-90.1 -893.1,-500.2 -977.4,-1015.8 -26.8,-164.8 -26.8,-199.3 0,-368 67.1,-402.5 306.6,-724.4 676.5,-908.4 283.6,-141.8 30.7,-134.2 4283.4,-126.5 3610.7,3.8 3810,5.8 3919.2,40.3 410.1,122.6 760.9,475.3 860.5,864.3 120.7,473.4 -34.5,950.6 -410.1,1263 -134.2,111.2 -371.8,220.4 -546.2,251.1 -220.4,38.4 -7589.3,38.4 -7805.9,0 z m 6153.9,-839.4 c 122.7,-72.8 205.1,-212.7 205.1,-356.5 0,-193.6 -132.2,-356.5 -325.8,-404.4 -61.3,-15.3 -935.3,-19.2 -2999.3,-15.3 -2801.9,5.7 -2915,7.7 -2980.2,42.2 -132.2,70.9 -212.7,176.3 -239.6,320 -23,126.5 51.7,302.8 164.8,385.2 126.5,93.9 -3.8,90.1 3141.2,86.2 l 2941.8,-3.8 z m 1609.9,13.4 c 147.6,-74.8 230,-207 230,-371.8 0,-233.8 -174.4,-408.2 -408.2,-408.2 -333.5,0 -527,362.2 -341.1,638.2 116.8,172.5 339.1,231.9 519.3,141.8 z"
         id="path859"
         style="fill:#000000" />
    </g>
  </g>
</svg>
