<?xml version="1.0" encoding="UTF-8" standalone="no"?>
<svg
   xmlns:dc="http://purl.org/dc/elements/1.1/"
   xmlns:cc="http://creativecommons.org/ns#"
   xmlns:rdf="http://www.w3.org/1999/02/22-rdf-syntax-ns#"
   xmlns:svg="http://www.w3.org/2000/svg"
   xmlns="http://www.w3.org/2000/svg"
   id="svg8"
   version="1.1"
   viewBox="0 0 64 64"
   height="64"
   width="64">
  <defs
     id="defs2" />
  <metadata
     id="metadata5">
    <rdf:RDF>
      <cc:Work
         rdf:about="">
        <dc:format>image/svg+xml</dc:format>
        <dc:type
           rdf:resource="http://purl.org/dc/dcmitype/StillImage" />
        <dc:title></dc:title>
      </cc:Work>
    </rdf:RDF>
  </metadata>
  <g
     transform="translate(0,-280.06664)"
     id="layer1">
    <path
       id="path5795"
       class=""
       d="M 49.0625,293.69164 H 14.937501 C 12.762852,293.69164 11,295.4545 11,297.62914 v 28.875 c 0,2.17464 1.762852,3.9375 3.937501,3.9375 H 49.0625 c 2.174648,0 3.9375,-1.76286 3.9375,-3.9375 v -28.875 c 0,-2.17464 -1.762852,-3.9375 -3.9375,-3.9375 z m -24.937499,34.125 h -9.1875 c -0.724914,0 -1.312501,-0.58759 -1.312501,-1.3125 v -6.5625 h 10.500001 z m 0,-10.5 H 13.625 v -7.875 h 10.500001 z m 0,-10.5 H 13.625 v -7.875 h 10.500001 z m 13.124999,21 h -10.5 v -7.875 h 10.5 z m 0,-10.5 h -10.5 v -7.875 h 10.5 z m 0,-10.5 h -10.5 v -7.875 h 10.5 z m 13.125,13.125 v 6.5625 c 0,0.72491 -0.58759,1.3125 -1.3125,1.3125 H 39.875 v -7.875 z m 0,-2.625 h -10.5 v -7.875 h 10.5 z m 0,-10.5 h -10.5 v -7.875 h 10.5 z"
       style="fill:#000000;stroke-width:0.08203125" />
  </g>
</svg>
